<?xml version="1.0" encoding="utf-8"?>
<!-- Generator: Adobe Illustrator 16.0.0, SVG Export Plug-In . SVG Version: 6.00 Build 0)  -->
<!DOCTYPE svg PUBLIC "-//W3C//DTD SVG 1.1//EN" "http://www.w3.org/Graphics/SVG/1.1/DTD/svg11.dtd">
<svg version="1.1" id="Capa_1" xmlns="http://www.w3.org/2000/svg" xmlns:xlink="http://www.w3.org/1999/xlink" x="0px" y="0px"
	 width="174.5px" height="64px" viewBox="0 0 174.5 64" enable-background="new 0 0 174.5 64" xml:space="preserve">
<g>
	<path d="M5.125,37h52.75c0.007,0.001,0.016,0,0.02,0c0.554,0,1-0.448,1-1c0-0.203-0.06-0.393-0.164-0.549L46.533,5.622
		C46.379,5.246,46.014,5,45.607,5H17.393c-0.406,0-0.771,0.246-0.926,0.622l-12.268,30c-0.126,0.308-0.09,0.659,0.096,0.937
		C4.48,36.834,4.792,37,5.125,37z M18.064,7h26.872l11.449,28H6.614L18.064,7z"/>
	<path d="M5,42h53c0.553,0,1-0.448,1-1s-0.447-1-1-1H5c-0.553,0-1,0.448-1,1S4.447,42,5,42z"/>
	<path d="M20,13h22c0.553,0,1-0.448,1-1s-0.447-1-1-1H20c-0.553,0-1,0.448-1,1S19.447,13,20,13z"/>
	<path d="M18,18h26c0.553,0,1-0.448,1-1s-0.447-1-1-1H18c-0.553,0-1,0.448-1,1S17.447,18,18,18z"/>
	<path d="M46,21H16c-0.553,0-1,0.448-1,1s0.447,1,1,1h30c0.553,0,1-0.448,1-1S46.553,21,46,21z"/>
	<path d="M5,47h53c0.553,0,1-0.448,1-1s-0.447-1-1-1H5c-0.553,0-1,0.448-1,1S4.447,47,5,47z"/>
	<path d="M5,52h53c0.553,0,1-0.448,1-1s-0.447-1-1-1H5c-0.553,0-1,0.448-1,1S4.447,52,5,52z"/>
	<path d="M5,57h53c0.553,0,1-0.448,1-1s-0.447-1-1-1H5c-0.553,0-1,0.448-1,1S4.447,57,5,57z"/>
</g>
<text transform="matrix(1 0 0 1 65.499 28.2646)" font-family="'NexaLight'" font-size="24.372">RATE MY</text>
<text transform="matrix(1 0 0 1 65.623 54.8125)" font-family="'NexaBold'" font-size="30.1619">PAPER</text>
</svg>
